<svg width="16" height="20" viewBox="0 0 16 20" fill="none" xmlns="http://www.w3.org/2000/svg">
<path d="M8 0.833496L14.8475 2.35516C15.0326 2.3963 15.198 2.4993 15.3167 2.64717C15.4353 2.79503 15.5 2.97893 15.5 3.1685V11.491C15.4999 12.3141 15.2967 13.1245 14.9082 13.8502C14.5198 14.5759 13.9582 15.1944 13.2733 15.651L8 19.1668L2.72667 15.651C2.04189 15.1945 1.48038 14.5761 1.09196 13.8505C0.70353 13.125 0.500197 12.3148 0.5 11.4918V3.1685C0.500033 2.97893 0.564698 2.79503 0.683325 2.64717C0.801951 2.4993 0.967447 2.3963 1.1525 2.35516L8 0.833496ZM8 5.8335C7.63312 5.83351 7.2765 5.95458 6.98544 6.17793C6.69439 6.40127 6.48515 6.71442 6.3902 7.06879C6.29524 7.42317 6.31987 7.79897 6.46026 8.13793C6.60065 8.47688 6.84895 8.76004 7.16667 8.9435V12.5002H8.83333L8.83417 8.9435C9.15194 8.76001 9.40028 8.47677 9.54066 8.13773C9.68103 7.7987 9.70559 7.42281 9.61053 7.06839C9.51546 6.71397 9.30609 6.40083 9.01489 6.17755C8.72369 5.95427 8.36695 5.83333 8 5.8335Z" fill="#25315B"/>
</svg>
