<svg width="69" height="14" viewBox="0 0 69 14" fill="none" xmlns="http://www.w3.org/2000/svg">
<path d="M8.408 0.968999V11H7.05V6.436H1.639V11H0.281V0.968999H1.639V5.442H7.05V0.968999H8.408ZM14.3163 7.808C13.7423 7.82667 13.2523 7.87333 12.8463 7.948C12.445 8.018 12.116 8.11133 11.8593 8.228C11.6073 8.34467 11.423 8.48233 11.3063 8.641C11.1943 8.79967 11.1383 8.977 11.1383 9.173C11.1383 9.35967 11.1687 9.52067 11.2293 9.656C11.29 9.79133 11.3717 9.90333 11.4743 9.992C11.5817 10.076 11.7053 10.139 11.8453 10.181C11.99 10.2183 12.144 10.237 12.3073 10.237C12.5267 10.237 12.7273 10.216 12.9093 10.174C13.0913 10.1273 13.2617 10.062 13.4203 9.978C13.5837 9.894 13.7377 9.79367 13.8823 9.677C14.0317 9.56033 14.1763 9.42733 14.3163 9.278V7.808ZM10.2913 4.91C10.6833 4.532 11.1057 4.24967 11.5583 4.063C12.011 3.87633 12.5127 3.783 13.0633 3.783C13.46 3.783 13.8123 3.84833 14.1203 3.979C14.4283 4.10967 14.6873 4.29167 14.8973 4.525C15.1073 4.75833 15.266 5.04067 15.3733 5.372C15.4807 5.70333 15.5343 6.06733 15.5343 6.464V11H14.9813C14.86 11 14.7667 10.9813 14.7013 10.944C14.636 10.902 14.5847 10.8227 14.5473 10.706L14.4073 10.034C14.2207 10.2067 14.0387 10.3607 13.8613 10.496C13.684 10.6267 13.4973 10.7387 13.3013 10.832C13.1053 10.9207 12.8953 10.9883 12.6713 11.035C12.452 11.0863 12.207 11.112 11.9363 11.112C11.661 11.112 11.402 11.0747 11.1593 11C10.9167 10.9207 10.7043 10.804 10.5223 10.65C10.345 10.496 10.2027 10.3023 10.0953 10.069C9.99266 9.831 9.94133 9.551 9.94133 9.229C9.94133 8.949 10.0183 8.68067 10.1723 8.424C10.3263 8.16267 10.576 7.93167 10.9213 7.731C11.2667 7.53033 11.717 7.367 12.2723 7.241C12.8277 7.11033 13.509 7.03567 14.3163 7.017V6.464C14.3163 5.91333 14.1973 5.498 13.9593 5.218C13.7213 4.93333 13.3737 4.791 12.9163 4.791C12.6083 4.791 12.3493 4.83067 12.1393 4.91C11.934 4.98467 11.7543 5.071 11.6003 5.169C11.451 5.26233 11.3203 5.34867 11.2083 5.428C11.101 5.50267 10.9937 5.54 10.8863 5.54C10.8023 5.54 10.73 5.519 10.6693 5.477C10.6087 5.43033 10.5573 5.37433 10.5153 5.309L10.2913 4.91ZM22.3673 5.169C22.33 5.22033 22.2926 5.26 22.2553 5.288C22.218 5.316 22.1666 5.33 22.1013 5.33C22.0313 5.33 21.9543 5.302 21.8703 5.246C21.7863 5.18533 21.6813 5.12 21.5553 5.05C21.434 4.98 21.2823 4.917 21.1003 4.861C20.923 4.80033 20.7036 4.77 20.4423 4.77C20.0923 4.77 19.7843 4.833 19.5183 4.959C19.2523 5.08033 19.0283 5.25767 18.8463 5.491C18.669 5.72433 18.5336 6.00667 18.4403 6.338C18.3516 6.66933 18.3073 7.04033 18.3073 7.451C18.3073 7.88033 18.3563 8.263 18.4543 8.599C18.5523 8.93033 18.69 9.21033 18.8673 9.439C19.0493 9.663 19.2663 9.83567 19.5183 9.957C19.775 10.0737 20.062 10.132 20.3793 10.132C20.6826 10.132 20.9323 10.097 21.1283 10.027C21.3243 9.95233 21.4853 9.87067 21.6113 9.782C21.742 9.69333 21.8493 9.614 21.9333 9.544C22.022 9.46933 22.1083 9.432 22.1923 9.432C22.295 9.432 22.3743 9.47167 22.4303 9.551L22.7803 10.006C22.6263 10.1973 22.4513 10.3607 22.2553 10.496C22.0593 10.6313 21.847 10.7457 21.6183 10.839C21.3943 10.9277 21.1586 10.993 20.9113 11.035C20.664 11.077 20.412 11.098 20.1553 11.098C19.712 11.098 19.299 11.0163 18.9163 10.853C18.5383 10.6897 18.2093 10.454 17.9293 10.146C17.6493 9.83333 17.43 9.45067 17.2713 8.998C17.1126 8.54533 17.0333 8.02967 17.0333 7.451C17.0333 6.92367 17.1056 6.436 17.2503 5.988C17.3996 5.54 17.6143 5.155 17.8943 4.833C18.179 4.50633 18.5266 4.252 18.9373 4.07C19.3526 3.888 19.8286 3.797 20.3653 3.797C20.8646 3.797 21.3033 3.87867 21.6813 4.042C22.064 4.20067 22.4023 4.427 22.6963 4.721L22.3673 5.169ZM30.0119 4.861H27.2889V11H26.0429V4.861H23.3199V3.909H30.0119V4.861ZM32.4529 9.292C32.6816 9.6 32.9312 9.817 33.2019 9.943C33.4726 10.069 33.7759 10.132 34.1119 10.132C34.7746 10.132 35.2832 9.89633 35.6379 9.425C35.9926 8.95367 36.1699 8.28167 36.1699 7.409C36.1699 6.947 36.1279 6.55033 36.0439 6.219C35.9646 5.88767 35.8479 5.617 35.6939 5.407C35.5399 5.19233 35.3509 5.036 35.1269 4.938C34.9029 4.84 34.6486 4.791 34.3639 4.791C33.9579 4.791 33.6009 4.88433 33.2929 5.071C32.9896 5.25767 32.7096 5.52133 32.4529 5.862V9.292ZM32.3899 5.008C32.6886 4.63933 33.0339 4.343 33.4259 4.119C33.8179 3.895 34.2659 3.783 34.7699 3.783C35.1806 3.783 35.5516 3.86233 35.8829 4.021C36.2142 4.175 36.4966 4.406 36.7299 4.714C36.9632 5.01733 37.1429 5.39533 37.2689 5.848C37.3949 6.30067 37.4579 6.821 37.4579 7.409C37.4579 7.93167 37.3879 8.41933 37.2479 8.872C37.1079 9.32 36.9049 9.70967 36.6389 10.041C36.3776 10.3677 36.0556 10.6267 35.6729 10.818C35.2949 11.0047 34.8679 11.098 34.3919 11.098C33.9579 11.098 33.5846 11.0257 33.2719 10.881C32.9639 10.7317 32.6909 10.5263 32.4529 10.265V13.401H31.1999V3.909H31.9489C32.1262 3.909 32.2359 3.99533 32.2779 4.168L32.3899 5.008ZM42.0229 3.797C42.5409 3.797 43.0075 3.88333 43.4229 4.056C43.8382 4.22867 44.1929 4.47367 44.4869 4.791C44.7809 5.10833 45.0049 5.49333 45.1589 5.946C45.3175 6.394 45.3969 6.89567 45.3969 7.451C45.3969 8.011 45.3175 8.515 45.1589 8.963C45.0049 9.411 44.7809 9.79367 44.4869 10.111C44.1929 10.4283 43.8382 10.6733 43.4229 10.846C43.0075 11.014 42.5409 11.098 42.0229 11.098C41.5002 11.098 41.0289 11.014 40.6089 10.846C40.1935 10.6733 39.8389 10.4283 39.5449 10.111C39.2509 9.79367 39.0245 9.411 38.8659 8.963C38.7119 8.515 38.6349 8.011 38.6349 7.451C38.6349 6.89567 38.7119 6.394 38.8659 5.946C39.0245 5.49333 39.2509 5.10833 39.5449 4.791C39.8389 4.47367 40.1935 4.22867 40.6089 4.056C41.0289 3.88333 41.5002 3.797 42.0229 3.797ZM42.0229 10.125C42.7229 10.125 43.2455 9.89167 43.5909 9.425C43.9362 8.95367 44.1089 8.298 44.1089 7.458C44.1089 6.61333 43.9362 5.95533 43.5909 5.484C43.2455 5.01267 42.7229 4.777 42.0229 4.777C41.6682 4.777 41.3579 4.83767 41.0919 4.959C40.8305 5.08033 40.6112 5.25533 40.4339 5.484C40.2612 5.71267 40.1305 5.995 40.0419 6.331C39.9579 6.66233 39.9159 7.038 39.9159 7.458C39.9159 8.298 40.0885 8.95367 40.4339 9.425C40.7839 9.89167 41.3135 10.125 42.0229 10.125ZM53.0602 3.909V11H51.8142V6.184C51.8142 6.09067 51.8189 5.99033 51.8282 5.883C51.8376 5.77567 51.8492 5.66833 51.8632 5.561C51.8212 5.65433 51.7792 5.74067 51.7372 5.82C51.6952 5.89933 51.6509 5.97167 51.6042 6.037L48.1812 10.692C48.1299 10.7667 48.0646 10.839 47.9852 10.909C47.9106 10.9743 47.8266 11.007 47.7332 11.007H46.9772V3.916H48.2302V8.732C48.2302 8.82067 48.2256 8.91867 48.2162 9.026C48.2069 9.12867 48.1952 9.23367 48.1812 9.341C48.2232 9.25233 48.2652 9.17067 48.3072 9.096C48.3492 9.01667 48.3912 8.94433 48.4332 8.879L51.8562 4.224C51.9076 4.14933 51.9729 4.07933 52.0522 4.014C52.1316 3.944 52.2179 3.909 52.3112 3.909H53.0602ZM50.0992 2.194C50.2906 2.194 50.4516 2.173 50.5822 2.131C50.7129 2.08433 50.8179 2.012 50.8972 1.914C50.9812 1.816 51.0419 1.69 51.0792 1.536C51.1166 1.382 51.1352 1.193 51.1352 0.968999H51.8632C51.9519 0.968999 52.0196 1.00867 52.0662 1.088C52.1129 1.16733 52.1362 1.25367 52.1362 1.347C52.1362 1.58033 52.0896 1.79033 51.9962 1.977C51.9029 2.16367 51.7676 2.32467 51.5902 2.46C51.4176 2.59067 51.2052 2.691 50.9532 2.761C50.7012 2.831 50.4166 2.866 50.0992 2.866C49.7819 2.866 49.4972 2.831 49.2452 2.761C48.9932 2.691 48.7786 2.59067 48.6012 2.46C48.4286 2.32467 48.2956 2.16367 48.2022 1.977C48.1089 1.79033 48.0622 1.58033 48.0622 1.347C48.0622 1.25367 48.0856 1.16733 48.1322 1.088C48.1789 1.00867 48.2466 0.968999 48.3352 0.968999H49.0632C49.0632 1.193 49.0819 1.382 49.1192 1.536C49.1566 1.69 49.2149 1.816 49.2942 1.914C49.3782 2.012 49.4856 2.08433 49.6162 2.131C49.7469 2.173 49.9079 2.194 50.0992 2.194ZM59.335 4.259C59.4003 4.15633 59.4866 4.07233 59.594 4.007C59.7013 3.94167 59.8156 3.909 59.937 3.909H60.91L59.069 6.611C58.957 6.78367 58.8403 6.926 58.719 7.038C58.5976 7.14533 58.4483 7.22933 58.271 7.29C58.495 7.35067 58.684 7.44633 58.838 7.577C58.992 7.703 59.1296 7.86633 59.251 8.067L61.113 11H60.245C60.021 11 59.8483 10.9627 59.727 10.888C59.6056 10.8133 59.5006 10.706 59.412 10.566L58.033 8.361C57.8136 7.997 57.4846 7.815 57.046 7.815H56.283V11.007H55.03V3.909H56.283V6.975H56.955C57.3283 6.975 57.62 6.81633 57.83 6.499L59.335 4.259ZM68.3591 3.909V11H67.1131V6.184C67.1131 6.09067 67.1177 5.99033 67.1271 5.883C67.1364 5.77567 67.1481 5.66833 67.1621 5.561C67.1201 5.65433 67.0781 5.74067 67.0361 5.82C66.9941 5.89933 66.9497 5.97167 66.9031 6.037L63.4801 10.692C63.4287 10.7667 63.3634 10.839 63.2841 10.909C63.2094 10.9743 63.1254 11.007 63.0321 11.007H62.2761V3.916H63.5291V8.732C63.5291 8.82067 63.5244 8.91867 63.5151 9.026C63.5057 9.12867 63.4941 9.23367 63.4801 9.341C63.5221 9.25233 63.5641 9.17067 63.6061 9.096C63.6481 9.01667 63.6901 8.94433 63.7321 8.879L67.1551 4.224C67.2064 4.14933 67.2717 4.07933 67.3511 4.014C67.4304 3.944 67.5167 3.909 67.6101 3.909H68.3591Z" fill="#25315B"/>
</svg>
